<svg xmlns="http://www.w3.org/2000/svg" viewBox="0 0 16 16">
  <defs>
    <style>
      .cls-1 {
        fill: #c1607d;
      }
    </style>
  </defs>
  <path id="svgexport-11_12_" data-name="svgexport-11 (12)" class="cls-1" d="M14.125,13.5a.625.625,0,1,1-.625-.625A.627.627,0,0,1,14.125,13.5ZM11.5,12.875a.625.625,0,1,0,.625.625A.627.627,0,0,0,11.5,12.875Zm4.5-1.5v3.25A1.375,1.375,0,0,1,14.625,16H1.375A1.375,1.375,0,0,1,0,14.625v-3.25A1.375,1.375,0,0,1,1.375,10H4.481L2.719,8.238A1.251,1.251,0,0,1,3.6,6.1H5.25V1.25A1.25,1.25,0,0,1,6.5,0h3a1.25,1.25,0,0,1,1.25,1.25V6.1H12.4a1.251,1.251,0,0,1,.884,2.134L11.519,10h3.106A1.375,1.375,0,0,1,16,11.375Zm-8.178.553a.251.251,0,0,0,.353,0l4.4-4.4a.251.251,0,0,0-.178-.428H9.75V1.25A.251.251,0,0,0,9.5,1h-3a.251.251,0,0,0-.25.25V7.1H3.6a.252.252,0,0,0-.178.428l4.4,4.4ZM15,11.375A.376.376,0,0,0,14.625,11H10.519L8.884,12.634a1.252,1.252,0,0,1-1.769,0L5.481,11H1.375A.376.376,0,0,0,1,11.375v3.25A.376.376,0,0,0,1.375,15h13.25A.376.376,0,0,0,15,14.625Z"/>
</svg>
