<svg xmlns="http://www.w3.org/2000/svg" viewBox="0 0 39.496 39.496">
  <defs>
    <style>
      .cls-1 {
        fill: #cf3670;
      }

      .cls-2 {
        fill: #fff;
      }
    </style>
  </defs>
  <g id="Group_7" data-name="Group 7" transform="translate(-680.504 -466)">
    <path id="svgexport-5_1_" data-name="svgexport-5 (1)" class="cls-1" d="M36.674,32H2.812A2.833,2.833,0,0,0,0,34.848v33.8A2.833,2.833,0,0,0,2.812,71.5H36.674A2.841,2.841,0,0,0,39.5,68.648v-33.8A2.841,2.841,0,0,0,36.674,32Z" transform="translate(680.504 434)"/>
    <path id="svgexport-11_15_" data-name="svgexport-11 (15)" class="cls-2" d="M21.6,8a13.6,13.6,0,1,0,8.067,24.551.657.657,0,0,0,.115-.944l-.278-.34a.656.656,0,0,0-.894-.117A11.846,11.846,0,1,1,21.6,9.755c6.5,0,11.845,4.389,11.845,10.968,0,4-2.9,5.936-6.365,5.936-1.082,0-1.3-.593-1.07-1.857l1.759-9a.658.658,0,0,0-.646-.784h-.681a.658.658,0,0,0-.646.533,9.268,9.268,0,0,0-.212,1.406A4.13,4.13,0,0,0,21.561,14.6c-3.732,0-7.3,3.452-7.3,8.611,0,3.377,1.86,5.394,4.975,5.394a5.973,5.973,0,0,0,4.751-2.576c-.066,1.524.957,2.315,2.521,2.315,5.9,0,8.7-3.138,8.7-7.62C35.2,13.254,29.161,8,21.6,8Zm-2.08,18.79c-2.012,0-3.213-1.377-3.213-3.683,0-4.1,2.784-6.666,5.331-6.666,2.131,0,3.186,1.524,3.186,3.6C24.826,23.234,22.722,26.79,19.521,26.79Z" transform="translate(679 464)"/>
  </g>
</svg>
