<svg xmlns="http://www.w3.org/2000/svg" viewBox="0 0 39.496 39.496">
  <defs>
    <style>
      .cls-1 {
        fill: #cf3670;
      }
    </style>
  </defs>
  <path id="svgexport-5_3_" data-name="svgexport-5 (3)" class="cls-1" d="M35.264,32H4.232A4.233,4.233,0,0,0,0,36.232V67.264A4.233,4.233,0,0,0,4.232,71.5H35.264A4.233,4.233,0,0,0,39.5,67.264V36.232A4.233,4.233,0,0,0,35.264,32ZM24.447,65.827c-.741.132-1.014-.326-1.014-.705,0-.476.018-2.909.018-4.875a3.435,3.435,0,0,0-1-2.707c3.262-.361,6.7-.811,6.7-6.444a4.526,4.526,0,0,0-1.508-3.438,5.514,5.514,0,0,0-.15-3.967c-1.225-.379-4.029,1.578-4.029,1.578a13.869,13.869,0,0,0-7.335,0s-2.8-1.957-4.029-1.578a5.471,5.471,0,0,0-.15,3.967A4.428,4.428,0,0,0,10.579,51.1c0,5.607,3.288,6.083,6.55,6.444a3.2,3.2,0,0,0-.934,1.966,3.093,3.093,0,0,1-4.258-1.225,3.071,3.071,0,0,0-2.248-1.508c-1.428-.018-.1.9-.1.9.952.441,1.622,2.133,1.622,2.133.855,2.618,4.946,1.737,4.946,1.737,0,1.225.018,3.218.018,3.579,0,.379-.264.838-1.014.705A14.626,14.626,0,0,1,5.272,51.871,13.99,13.99,0,0,1,19.554,37.633,14.3,14.3,0,0,1,34.206,51.871,14.492,14.492,0,0,1,24.447,65.827ZM15.8,60.44c-.168.035-.326-.035-.344-.15-.018-.132.1-.247.264-.282.168-.018.326.053.344.168s-.088.229-.264.264Zm-.838-.079c0,.115-.132.212-.309.212-.194.018-.326-.079-.326-.212,0-.115.132-.212.309-.212C14.8,60.132,14.961,60.229,14.961,60.361Zm-1.208-.1c-.035.115-.212.168-.361.115-.168-.035-.282-.168-.247-.282s.212-.168.361-.132c.176.053.291.185.247.3Zm-1.084-.476c-.079.1-.247.079-.379-.053-.132-.115-.168-.282-.079-.361.079-.1.247-.079.379.053C12.7,59.541,12.748,59.717,12.669,59.788Zm-.8-.8c-.079.053-.229,0-.326-.132s-.1-.282,0-.344c.1-.079.247-.018.326.115A.258.258,0,0,1,11.866,58.986Zm-.573-.855c-.079.079-.212.035-.309-.053-.1-.115-.115-.247-.035-.309.079-.079.212-.035.309.053C11.355,57.937,11.373,58.069,11.293,58.131Zm-.591-.652a.166.166,0,0,1-.247.035c-.115-.053-.168-.15-.132-.229a.207.207,0,0,1,.247-.035C10.685,57.311,10.738,57.408,10.7,57.478Z" transform="translate(0 -32)"/>
</svg>
