<svg xmlns="http://www.w3.org/2000/svg" viewBox="0 0 39.496 39.496">
  <defs>
    <style>
      .cls-1 {
        fill: #cf3670;
      }
    </style>
  </defs>
  <path id="svgexport-5_1_" data-name="svgexport-5 (1)" class="cls-1" d="M36.674,32H2.812A2.833,2.833,0,0,0,0,34.848v33.8A2.833,2.833,0,0,0,2.812,71.5H36.674A2.841,2.841,0,0,0,39.5,68.648v-33.8A2.841,2.841,0,0,0,36.674,32ZM11.937,65.853H6.083V47h5.863V65.853ZM9.01,44.431A3.394,3.394,0,1,1,12.4,41.036,3.4,3.4,0,0,1,9.01,44.431ZM33.88,65.853H28.026V56.685c0-2.186-.044-5-3.042-5-3.05,0-3.518,2.38-3.518,4.84v9.327H15.613V47h5.616v2.574h.079a6.166,6.166,0,0,1,5.545-3.042c5.924,0,7.026,3.905,7.026,8.983Z" transform="translate(0 -32)"/>
</svg>
