<svg xmlns="http://www.w3.org/2000/svg" viewBox="0 0 188 31">
  <defs>
    <style>
      .cls-1 {
        fill: #cf3670;
      }

      .cls-2, .cls-4 {
        fill: #fff;
      }

      .cls-2, .cls-3 {
        font-size: 22px;
        letter-spacing: 0.02em;
      }

      .cls-2 {
        font-family: FuturaPT-Medium, Futura PT;
        font-weight: 500;
      }

      .cls-3 {
        fill: #360830;
        font-family: FuturaPT-Book, Futura PT;
      }
    </style>
  </defs>
  <g id="Group_13" data-name="Group 13" transform="translate(-235 -43)">
    <g id="Group_12" data-name="Group 12">
      <g id="Group_11" data-name="Group 11">
        <g id="Group_10" data-name="Group 10">
          <g id="Group_9" data-name="Group 9">
            <rect id="Rectangle_30" data-name="Rectangle 30" class="cls-1" width="63" height="31" transform="translate(235 43)"/>
            <text id="R" class="cls-2" transform="translate(261 65)"><tspan x="0" y="0">R</tspan></text>
            <text id="FERNANDES" class="cls-3" transform="translate(304 65)"><tspan x="0" y="0">FERNANDES</tspan></text>
            <path id="svgexport-11_18_" data-name="svgexport-11 (18)" class="cls-4" d="M52.373,21.85l-1.657-.483a.345.345,0,0,1-.235-.423L56.494.247a.345.345,0,0,1,.423-.235l1.657.483a.345.345,0,0,1,.235.423L52.8,21.615A.34.34,0,0,1,52.373,21.85ZM60.952,16.7l5.88-5.513a.341.341,0,0,0,0-.5l-5.88-5.517a.339.339,0,0,0-.483.017L59.308,6.422a.346.346,0,0,0,.021.491l4.531,4.018L59.33,14.949a.342.342,0,0,0-.021.491l1.162,1.238A.343.343,0,0,0,60.952,16.7Z" transform="translate(227.214 47.001)"/>
            <path id="svgexport-11_18_2" data-name="svgexport-11 (18)" class="cls-4" d="M6.407,43.133,7.565,41.9a.345.345,0,0,0-.021-.49L3.026,37.4,7.543,33.4a.341.341,0,0,0,.021-.49L6.407,31.672a.342.342,0,0,0-.481-.017l-5.867,5.5a.34.34,0,0,0,0,.5l5.867,5.5A.342.342,0,0,0,6.407,43.133Z" transform="translate(249.05 20.535)"/>
          </g>
        </g>
      </g>
    </g>
  </g>
</svg>
